<svg version="1.1" xmlns="http://www.w3.org/2000/svg" xmlns:xlink="http://www.w3.org/1999/xlink" viewBox="0 0 350 339.6">
<style type="text/css">
	.footer-logo-fill{fill:#FDFEFE;}
</style>
<path class="footer-logo-fill" d="M116.8,0.3L0.3,101.8c-0.4,0.3-0.4,0.9-0.1,1.2l116.5,130.2c0.6,0.7,1.7,0.3,1.7-0.6V0.9
	C118.4,0.1,117.3-0.3,116.8,0.3z"/>
<path class="footer-logo-fill" d="M131.8,1v101.3c0,0.5,0.3,0.9,0.9,0.9h116.6c0.9,0,1.1-1,0.6-1.4L133.5,0.3C132.8-0.3,131.8,0,131.8,1z"/>
<path class="footer-logo-fill" d="M349.8,217.7"/>
<path class="footer-logo-fill" d="M347.3,230.7c1.4,0,2.6-1.1,2.6-2.5c0.1-1.4,0.1-2.9,0.1-4.3c0-60.7-49.2-110-110-110h0
	c-60.7,0-110,49.2-110,110c0,1.4,0,2.7,0.1,4.1c0.1,1.5,1.3,2.7,2.8,2.7H347.3z"/>
<g>
	<g>
		<path class="footer-logo-fill" d="M138.1,316.5h-6.5v-58.9h6.5v36.8l15.7-17.2h8.2l-17.5,19.2l17.5,20.1h-8.1L138.1,299V316.5z"/>
		<path class="footer-logo-fill" d="M171.5,268.4c0,2.3-1.9,4.1-4.2,4.1c-2.3,0-4.1-1.8-4.1-4.2c0-2.4,1.8-4.2,4.2-4.2
			C169.7,264.1,171.5,266,171.5,268.4z M170.6,316.5h-6.5v-39.2h6.5V316.5z"/>
		<path class="footer-logo-fill" d="M185.1,308.5c0.1,2,0.6,2.4,3,2.4h3.8v5.6h-6.9c-4.6-0.1-6.4-1.8-6.4-6.1V283h-4.6v-5.7h4.6v-12.8h6.5v12.8
			h6.8v5.7h-6.8V308.5z"/>
		<path class="footer-logo-fill" d="M198.6,299c0.3,3.3,0.9,5,2.6,7.2c2.6,3.5,6.3,5.4,10.6,5.4c4.9,0,9.4-2.6,11.7-6.7l5.7,2.1
			c-3.2,6.6-10,10.6-17.5,10.6c-11.7,0-20-8.5-20-20.4c0-12.1,8.3-20.7,19.8-20.7c11.4,0,19.9,8.6,19.9,20.1c0,0.5,0,1.6-0.1,2.6
			H198.6z M224.5,293.5c-0.3-3.1-0.9-4.8-2.2-6.7c-2.5-3.3-6.5-5.4-10.8-5.4c-4.3,0-8.3,2-10.6,5.4c-1.2,1.9-1.7,3.5-2.2,6.6H224.5z
			"/>
	</g>
	<g>
		<path class="footer-logo-fill" d="M247.2,282.7c3.6-4.4,7.2-6.4,11.8-6.4c3.4,0,7,1.4,9.1,3.6c2.1,2.1,3.1,5.2,3.1,10.2v26.4h-6.5v-26
			c0-5.4-2.6-8.3-7.3-8.3c-3,0-5.6,1.2-7.7,3.5c-2,2.2-2.6,4.2-2.6,7.9v23h-6.5v-58.9h6.5V282.7z"/>
		<path class="footer-logo-fill" d="M283.3,268.4c0,2.3-1.9,4.1-4.2,4.1c-2.3,0-4.1-1.8-4.1-4.2c0-2.4,1.8-4.2,4.2-4.2
			C281.5,264.1,283.3,266,283.3,268.4z M282.4,316.5h-6.5v-39.2h6.5V316.5z"/>
		<path class="footer-logo-fill" d="M287.1,316.5v-58.9h6.5v58.9H287.1z"/>
		<path class="footer-logo-fill" d="M298.2,316.5v-58.9h6.5v58.9H298.2z"/>
	</g>
	<g>
		<path class="footer-logo-fill" d="M132.6,339.5h-1V328h2.8c1.4,0,2.4,0.3,3.1,0.8c0.7,0.6,1.1,1.5,1.1,2.6c0,1.1-0.4,2.1-1.3,2.8
			c-0.6,0.5-1.5,0.7-2.8,0.7h-1.9V339.5z M134.3,334c0.7,0,1.2-0.1,1.6-0.2c1-0.3,1.7-1.3,1.7-2.4c0-1.1-0.7-2.1-1.8-2.4
			c-0.5-0.1-1-0.2-1.8-0.2h-1.4v5.1H134.3z"/>
		<path class="footer-logo-fill" d="M139.9,339.5V328h0.9v11.5H139.9z"/>
		<path class="footer-logo-fill" d="M148.9,331.6h0.9v7.9h-0.9v-1.8c-0.8,1.3-1.7,1.9-3,1.9c-2.1,0-3.7-1.7-3.7-4.1c0-2.4,1.5-4.1,3.7-4.1
			c1.3,0,2.2,0.5,3,1.6V331.6z M143.9,333.2c-0.4,0.6-0.7,1.5-0.7,2.3c0,1.9,1.2,3.2,2.8,3.2c1.7,0,3-1.5,3-3.4s-1.2-3.2-2.9-3.2
			C145.1,332.2,144.4,332.5,143.9,333.2z"/>
		<path class="footer-logo-fill" d="M152.8,331.6v1.2c0.8-0.9,1.5-1.3,2.5-1.3c0.7,0,1.3,0.2,1.8,0.6c0.5,0.4,0.7,1,0.7,1.9v5.5h-0.9v-5.1
			c0-0.8-0.1-1.3-0.3-1.6c-0.3-0.3-0.8-0.5-1.3-0.5c-0.7,0-1.3,0.2-1.7,0.7c-0.5,0.5-0.6,0.9-0.6,1.7v4.9h-0.9v-7.9H152.8z"/>
		<path class="footer-logo-fill" d="M161.1,338.2c0,0.4,0.1,0.5,0.6,0.5h0.7v0.8h-0.9c-0.9,0-1.2-0.3-1.2-1.1v-6H159v-0.8h1.2v-2.7h0.9v2.7h1.3
			v0.8h-1.3V338.2z"/>
		<path class="footer-logo-fill" d="M167.1,335.7h-3.4v-0.8h3.4V335.7z"/>
		<path class="footer-logo-fill" d="M172.4,328c2.1,0,3.5,1.2,3.5,3c0,0.7-0.2,1.4-0.6,1.8c-0.3,0.3-0.5,0.5-1.2,0.8c0.6,0.1,0.9,0.2,1.3,0.5
			c0.7,0.5,1,1.3,1,2.3c0,1.1-0.5,2-1.3,2.5c-0.7,0.4-1.4,0.6-3,0.6h-2.7V328H172.4z M170.3,333.3h1.7c1,0,1.6-0.1,2-0.5
			c0.5-0.4,0.8-1.1,0.8-1.8c0-0.8-0.4-1.6-1-1.8c-0.5-0.2-0.9-0.3-2.2-0.3h-1.4V333.3z M170.3,338.6h1.6c1.4,0,1.9-0.1,2.5-0.4
			c0.6-0.4,1-1,1-1.8c0-1.5-0.9-2.2-2.9-2.2h-2.2V338.6z"/>
		<path class="footer-logo-fill" d="M184.1,331.6h0.9v7.9h-0.9v-1.8c-0.8,1.3-1.7,1.9-3,1.9c-2.1,0-3.7-1.7-3.7-4.1c0-2.4,1.5-4.1,3.7-4.1
			c1.3,0,2.2,0.5,3,1.6V331.6z M179.1,333.2c-0.4,0.6-0.7,1.5-0.7,2.3c0,1.9,1.2,3.2,2.8,3.2c1.7,0,3-1.5,3-3.4s-1.2-3.2-2.9-3.2
			C180.3,332.2,179.6,332.5,179.1,333.2z"/>
		<path class="footer-logo-fill" d="M191.3,333.6c0-0.9-0.7-1.4-1.8-1.4c-1.1,0-1.7,0.5-1.7,1.3c0,0.8,0.4,1.2,1.9,1.5c1.1,0.3,1.6,0.5,2,0.9
			c0.4,0.4,0.6,0.9,0.6,1.5c0,1.3-1.1,2.2-2.7,2.2c-1.7,0-2.7-0.8-2.8-2.3h0.9c0.1,1,0.8,1.6,2,1.6c1.1,0,1.8-0.6,1.8-1.4
			c0-0.8-0.5-1.2-2-1.6c-0.9-0.2-1.4-0.4-1.8-0.8c-0.4-0.4-0.7-0.9-0.7-1.5c0-1.3,1.1-2.2,2.7-2.2c1.6,0,2.6,0.8,2.7,2.2H191.3z"/>
		<path class="footer-logo-fill" d="M194.4,335.9c0.1,0.8,0.2,1.2,0.6,1.7c0.6,0.8,1.4,1.3,2.4,1.3c1.1,0,2.1-0.6,2.7-1.6l0.7,0.4
			c-0.6,1.2-1.9,2-3.4,2c-2.3,0-3.9-1.7-3.9-4.1c0-2.4,1.6-4.1,3.9-4.1c2.2,0,3.9,1.7,3.9,3.9c0,0.1,0,0.3,0,0.6H194.4z
			 M200.3,335.1c-0.1-0.7-0.2-1.1-0.5-1.5c-0.6-0.8-1.5-1.3-2.5-1.3c-1,0-1.9,0.5-2.4,1.3c-0.3,0.4-0.4,0.8-0.5,1.5H200.3z"/>
		<path class="footer-logo-fill" d="M208.8,328h0.9v11.5h-0.9v-1.5c-0.9,1.2-1.7,1.7-2.9,1.7c-2.1,0-3.7-1.7-3.7-4.1c0-2.4,1.5-4.1,3.6-4.1
			c0.6,0,1.2,0.1,1.7,0.4c0.5,0.3,0.8,0.5,1.3,1.1V328z M203.2,335.6c0,1.9,1.1,3.2,2.8,3.2c1.7,0,2.9-1.4,2.9-3.3
			c0-2-1.1-3.3-2.8-3.3C204.3,332.2,203.2,333.6,203.2,335.6z"/>
		<path class="footer-logo-fill" d="M216.5,336.5l-1.2,3h-1l4.5-11.5h1.1l4.4,11.5h-1.1l-1.1-3H216.5z M219.3,329.3l-2.4,6.3h4.8L219.3,329.3z"/>
		<path class="footer-logo-fill" d="M226.4,331.6v1.4c0.3-0.6,0.4-0.8,0.7-1.1c0.4-0.3,1-0.5,1.6-0.5h0.3v0.8h-0.3c-1.5,0-2.5,1.3-2.4,3.1v4.1
			h-0.9v-7.9H226.4z"/>
		<path class="footer-logo-fill" d="M231.8,338.2c0,0.4,0.1,0.5,0.6,0.5h0.7v0.8h-0.9c-0.9,0-1.2-0.3-1.2-1.1v-6h-1.2v-0.8h1.2v-2.7h0.9v2.7h1.3
			v0.8h-1.3V338.2z"/>
		<path class="footer-logo-fill" d="M236,329.3c0,0.3-0.3,0.6-0.6,0.6c-0.4,0-0.7-0.3-0.7-0.7s0.3-0.7,0.7-0.7C235.7,328.7,236,329,236,329.3z
			 M235.8,339.5h-0.9v-7.9h0.9V339.5z"/>
		<path class="footer-logo-fill" d="M242.1,333.6c0-0.9-0.7-1.4-1.8-1.4c-1.1,0-1.7,0.5-1.7,1.3c0,0.8,0.4,1.2,1.9,1.5c1.1,0.3,1.6,0.5,2,0.9
			c0.4,0.4,0.6,0.9,0.6,1.5c0,1.3-1.1,2.2-2.7,2.2c-1.7,0-2.7-0.8-2.8-2.3h0.9c0.1,1,0.8,1.6,2,1.6c1.1,0,1.8-0.6,1.8-1.4
			c0-0.8-0.5-1.2-2-1.6c-0.9-0.2-1.4-0.4-1.8-0.8c-0.4-0.4-0.7-0.9-0.7-1.5c0-1.3,1.1-2.2,2.7-2.2c1.6,0,2.6,0.8,2.7,2.2H242.1z"/>
		<path class="footer-logo-fill" d="M250.8,331.6h0.9v7.9h-0.9v-1.8c-0.8,1.3-1.7,1.9-3,1.9c-2.1,0-3.7-1.7-3.7-4.1c0-2.4,1.5-4.1,3.7-4.1
			c1.3,0,2.2,0.5,3,1.6V331.6z M245.8,333.2c-0.4,0.6-0.7,1.5-0.7,2.3c0,1.9,1.2,3.2,2.8,3.2c1.7,0,3-1.5,3-3.4s-1.2-3.2-2.9-3.2
			C246.9,332.2,246.3,332.5,245.8,333.2z"/>
		<path class="footer-logo-fill" d="M254.7,331.6v1.2c0.8-0.9,1.5-1.3,2.5-1.3c0.7,0,1.3,0.2,1.8,0.6c0.5,0.4,0.7,1,0.7,1.9v5.5h-0.9v-5.1
			c0-0.8-0.1-1.3-0.3-1.6c-0.3-0.3-0.8-0.5-1.3-0.5c-0.7,0-1.3,0.2-1.7,0.7c-0.5,0.5-0.6,0.9-0.6,1.7v4.9h-0.9v-7.9H254.7z"/>
		<path class="footer-logo-fill" d="M265.9,333.6c0-0.9-0.7-1.4-1.8-1.4c-1.1,0-1.7,0.5-1.7,1.3c0,0.8,0.4,1.2,1.9,1.5c1.1,0.3,1.6,0.5,2,0.9
			c0.4,0.4,0.6,0.9,0.6,1.5c0,1.3-1.1,2.2-2.7,2.2c-1.7,0-2.7-0.8-2.8-2.3h0.9c0.1,1,0.8,1.6,2,1.6c1.1,0,1.8-0.6,1.8-1.4
			c0-0.8-0.5-1.2-2-1.6c-0.9-0.2-1.4-0.4-1.8-0.8c-0.4-0.4-0.7-0.9-0.7-1.5c0-1.3,1.1-2.2,2.7-2.2c1.6,0,2.6,0.8,2.7,2.2H265.9z"/>
	</g>
</g>
<path class="footer-logo-fill" d="M310.9,262h-0.7l-1.1-1.2v1.2h-0.5v-3.2h0.9c0.7,0,1.1,0.4,1.1,1c0,0.4-0.2,0.7-0.5,0.8
	c-0.1,0.1-0.3,0.1-0.5,0.1L310.9,262z M309.2,260.3h0.3c0.3,0,0.7-0.1,0.7-0.5c0-0.3-0.2-0.5-0.6-0.5h-0.4V260.3z M312.4,260.5
	c0,1.5-1.2,2.8-2.8,2.8c-1.5,0-2.8-1.2-2.8-2.8c0-1.5,1.2-2.8,2.8-2.8C311.2,257.7,312.4,259,312.4,260.5z M307.4,260.5
	c0,1.3,1,2.3,2.2,2.3c1.2,0,2.2-1,2.2-2.3c0-1.3-1-2.3-2.2-2.3C308.4,258.2,307.4,259.2,307.4,260.5z"/>
</svg>
