<svg version="1.1" xmlns="http://www.w3.org/2000/svg" xmlns:xlink="http://www.w3.org/1999/xlink" viewBox="0 0 394.9 118" style="enable-background:new 0 0 394.9 118;" xml:space="preserve">
<style type="text/css">
	.footer-logo-fill-svg{fill:#FFFFFF;}
</style>
<defs>
</defs>
<path class="footer-logo-fill-svg" d="M43.4,0.1L0.1,37.8c-0.1,0.1-0.1,0.3,0,0.5l43.3,48.4c0.2,0.3,0.6,0.1,0.6-0.2V0.3C44,0,43.6-0.1,43.4,0.1z"/>
<path class="footer-logo-fill-svg" d="M49,0.4V38c0,0.2,0.1,0.3,0.3,0.3h43.3c0.3,0,0.4-0.4,0.2-0.5L49.6,0.1C49.4-0.1,49,0,49,0.4z"/>
<path class="footer-logo-fill-svg" d="M120,76.2"/>
<path class="footer-logo-fill-svg" d="M129,85.7c0.5,0,0.9-0.4,1-0.9c0-0.5,0-1.1,0-1.6c0-22.6-18.3-40.9-40.9-40.9h0c-22.6,0-40.9,18.3-40.9,40.9
	c0,0.5,0,1,0,1.5c0,0.6,0.5,1,1,1H129z"/>
<g>
	<g>
		<path class="footer-logo-fill-svg" d="M155.1,84.7h-9.3V0h9.3v53l22.5-24.8h11.8l-25.2,27.6l25.1,28.9h-11.6l-22.5-25.2V84.7z"/>
		<path class="footer-logo-fill-svg" d="M203.3,15.4c0,3.3-2.7,5.9-6,5.9c-3.3,0-5.9-2.6-5.9-6c0-3.4,2.6-6,6-6C200.7,9.3,203.3,12,203.3,15.4z
			 M201.9,84.7h-9.3V28.2h9.3V84.7z"/>
		<path class="footer-logo-fill-svg" d="M222.9,73.2c0.1,2.8,0.9,3.4,4.3,3.4h5.5v8.1h-9.9c-6.6-0.1-9.2-2.6-9.2-8.8V36.4h-6.6v-8.2h6.6V9.9h9.3v18.4
			h9.8v8.2h-9.8V73.2z"/>
		<path class="footer-logo-fill-svg" d="M242.2,59.5c0.5,4.8,1.3,7.2,3.7,10.3c3.7,5,9.1,7.7,15.2,7.7c7,0,13.6-3.8,16.9-9.7l8.2,3.1
			c-4.7,9.4-14.3,15.2-25.1,15.2c-16.8,0-28.8-12.3-28.8-29.4c0-17.4,11.9-29.8,28.4-29.8c16.4,0,28.7,12.4,28.7,28.9
			c0,0.7,0,2.3-0.1,3.7H242.2z M279.5,51.6c-0.4-4.4-1.2-6.9-3.2-9.7c-3.6-4.8-9.3-7.7-15.6-7.7c-6.2,0-11.9,2.9-15.2,7.8
			c-1.7,2.7-2.5,5-3.2,9.6H279.5z"/>
	</g>
	<g>
		<path class="footer-logo-fill-svg" d="M312.2,36.1c5.1-6.4,10.3-9.2,17-9.2c4.9,0,10,2,13.1,5.1c3.1,3.1,4.4,7.5,4.4,14.7v38h-9.3V47.2
			c0-7.7-3.8-12-10.5-12c-4.3,0-8.1,1.7-11,5c-2.8,3.2-3.7,6-3.7,11.4v33.1h-9.3V0h9.3V36.1z"/>
		<path class="footer-logo-fill-svg" d="M364.2,15.4c0,3.3-2.7,5.9-6,5.9c-3.3,0-5.9-2.6-5.9-6c0-3.4,2.6-6,6-6C361.6,9.3,364.2,12,364.2,15.4z
			 M362.8,84.7h-9.3V28.2h9.3V84.7z"/>
		<path class="footer-logo-fill-svg" d="M369.6,84.7V0h9.3v84.7H369.6z"/>
		<path class="footer-logo-fill-svg" d="M385.6,84.7V0h9.3v84.7H385.6z"/>
	</g>
	<g>
		<path class="footer-logo-fill-svg" d="M147.2,117.8h-1.4v-16.5h4c2,0,3.4,0.4,4.4,1.2c1.1,0.9,1.6,2.2,1.6,3.7c0,1.6-0.6,3.1-1.8,4
			c-0.9,0.7-2.1,1-4,1h-2.8V117.8z M149.7,109.9c1,0,1.7-0.1,2.3-0.3c1.5-0.4,2.4-1.8,2.4-3.4c0-1.6-1-3-2.5-3.4
			c-0.7-0.2-1.4-0.3-2.6-0.3h-2.1v7.4H149.7z"/>
		<path class="footer-logo-fill-svg" d="M157.8,117.8v-16.5h1.2v16.5H157.8z"/>
		<path class="footer-logo-fill-svg" d="M170.7,106.4h1.2v11.4h-1.2v-2.5c-1.1,1.9-2.5,2.7-4.3,2.7c-3.1,0-5.3-2.5-5.3-5.9c0-3.4,2.2-5.9,5.3-5.9
			c1.8,0,3.2,0.7,4.3,2.3V106.4z M163.5,108.8c-0.6,0.9-1,2.1-1,3.3c0,2.7,1.7,4.7,4,4.7c2.4,0,4.3-2.2,4.3-4.9
			c0-2.7-1.7-4.6-4.2-4.6C165.2,107.3,164.2,107.8,163.5,108.8z"/>
		<path class="footer-logo-fill-svg" d="M176.3,106.4v1.7c1.1-1.3,2.2-1.9,3.5-1.9c1,0,1.9,0.3,2.5,0.9c0.7,0.6,1,1.4,1,2.8v7.9h-1.2v-7.4
			c0-1.2-0.1-1.8-0.5-2.3c-0.4-0.5-1.1-0.8-1.9-0.8c-1,0-1.8,0.3-2.5,1c-0.7,0.7-0.9,1.3-0.9,2.4v7h-1.2v-11.4H176.3z"/>
		<path class="footer-logo-fill-svg" d="M188.3,116c0,0.6,0.1,0.7,0.8,0.7h1v1.1h-1.3c-1.3,0-1.7-0.4-1.8-1.6v-8.7h-1.7v-1.2h1.7v-3.8h1.2v3.8h1.9
			v1.2h-1.9V116z"/>
		<path class="footer-logo-fill-svg" d="M196.9,112.4h-5v-1.2h5V112.4z"/>
		<path class="footer-logo-fill-svg" d="M204.5,101.2c3.1,0,5,1.7,5,4.4c0,1-0.3,2-0.9,2.6c-0.4,0.4-0.8,0.7-1.7,1.1c0.9,0.2,1.3,0.3,1.9,0.7
			c0.9,0.7,1.5,1.9,1.5,3.2c0,1.6-0.7,2.9-1.8,3.6c-1,0.6-2.1,0.8-4.3,0.8h-3.9v-16.5H204.5z M201.6,108.8h2.5
			c1.4,0,2.3-0.2,2.9-0.7c0.7-0.6,1.2-1.5,1.2-2.6c0-1.2-0.6-2.2-1.5-2.7c-0.7-0.3-1.4-0.4-3.2-0.4h-2V108.8z M201.6,116.5h2.3
			c2.1,0,2.8-0.1,3.6-0.6c0.9-0.5,1.4-1.4,1.4-2.6c0-2.2-1.3-3.2-4.1-3.2h-3.2V116.5z"/>
		<path class="footer-logo-fill-svg" d="M221.4,106.4h1.2v11.4h-1.2v-2.5c-1.1,1.9-2.5,2.7-4.3,2.7c-3.1,0-5.3-2.5-5.3-5.9c0-3.4,2.2-5.9,5.3-5.9
			c1.8,0,3.2,0.7,4.3,2.3V106.4z M214.2,108.8c-0.6,0.9-1,2.1-1,3.3c0,2.7,1.7,4.7,4,4.7c2.4,0,4.3-2.2,4.3-4.9
			c0-2.7-1.7-4.6-4.2-4.6C215.9,107.3,214.9,107.8,214.2,108.8z"/>
		<path class="footer-logo-fill-svg" d="M231.7,109.4c0-1.3-0.9-2.1-2.6-2.1c-1.5,0-2.5,0.7-2.5,1.9c0,1.2,0.6,1.7,2.7,2.2c1.5,0.4,2.3,0.7,2.9,1.3
			c0.5,0.5,0.9,1.4,0.9,2.2c0,1.9-1.5,3.1-3.9,3.1c-2.5,0-3.8-1.1-4.1-3.4h1.3c0.1,1.4,1.2,2.3,2.9,2.3c1.5,0,2.6-0.8,2.6-2
			c0-1.1-0.8-1.8-2.9-2.3c-1.3-0.3-2.1-0.6-2.6-1.2c-0.6-0.5-1-1.3-1-2.2c0-1.9,1.6-3.1,3.8-3.1c2.3,0,3.7,1.2,3.8,3.2H231.7z"/>
		<path class="footer-logo-fill-svg" d="M236.2,112.6c0.1,1.1,0.3,1.7,0.8,2.4c0.8,1.2,2.1,1.8,3.4,1.8c1.6,0,3.1-0.9,3.8-2.2l1,0.5
			c-0.8,1.7-2.8,2.9-4.8,2.9c-3.3,0-5.6-2.4-5.6-5.9c0-3.5,2.3-6,5.6-6c3.2,0,5.6,2.5,5.6,5.6c0,0.1,0,0.4,0,0.8H236.2z
			 M244.7,111.4c-0.1-1-0.2-1.5-0.7-2.2c-0.8-1.2-2.1-1.9-3.6-1.9c-1.5,0-2.8,0.7-3.5,1.9c-0.4,0.6-0.5,1.1-0.7,2.2H244.7z"/>
		<path class="footer-logo-fill-svg" d="M257,101.2h1.2v16.5H257v-2.2c-1.2,1.7-2.5,2.4-4.2,2.4c-3.1,0-5.3-2.4-5.3-5.9c0-3.4,2.2-6,5.2-6
			c0.8,0,1.7,0.2,2.4,0.6c0.7,0.4,1.2,0.7,1.8,1.6V101.2z M248.8,112.1c0,2.8,1.6,4.7,4,4.7c2.4,0,4.2-2,4.2-4.8
			c0-2.8-1.6-4.7-4-4.7C250.5,107.3,248.8,109.3,248.8,112.1z"/>
		<path class="footer-logo-fill-svg" d="M268.1,113.4l-1.8,4.3h-1.4l6.5-16.5h1.5l6.3,16.5h-1.6l-1.6-4.3H268.1z M272.1,103.1l-3.5,9h7L272.1,103.1z"
			/>
		<path class="footer-logo-fill-svg" d="M282.2,106.4v2.1c0.4-0.8,0.6-1.1,1.1-1.5c0.6-0.5,1.5-0.7,2.3-0.7h0.5v1.2h-0.4c-2.1,0-3.6,1.9-3.4,4.4v6
			H281v-11.4H282.2z"/>
		<path class="footer-logo-fill-svg" d="M290,116c0,0.6,0.1,0.7,0.8,0.7h1v1.1h-1.3c-1.3,0-1.7-0.4-1.8-1.6v-8.7h-1.7v-1.2h1.7v-3.8h1.2v3.8h1.9v1.2
			H290V116z"/>
		<path class="footer-logo-fill-svg" d="M296.1,103.2c0,0.5-0.4,0.9-0.9,0.9c-0.5,0-0.9-0.4-0.9-0.9s0.4-0.9,0.9-0.9
			C295.7,102.2,296.1,102.6,296.1,103.2z M295.7,117.8h-1.2v-11.4h1.2V117.8z"/>
		<path class="footer-logo-fill-svg" d="M304.9,109.4c0-1.3-0.9-2.1-2.6-2.1c-1.5,0-2.5,0.7-2.5,1.9c0,1.2,0.6,1.7,2.7,2.2c1.5,0.4,2.3,0.7,2.9,1.3
			c0.5,0.5,0.9,1.4,0.9,2.2c0,1.9-1.5,3.1-3.9,3.1c-2.5,0-3.8-1.1-4.1-3.4h1.3c0.1,1.4,1.2,2.3,2.9,2.3c1.5,0,2.6-0.8,2.6-2
			c0-1.1-0.8-1.8-2.9-2.3c-1.3-0.3-2.1-0.6-2.6-1.2c-0.6-0.5-1-1.3-1-2.2c0-1.9,1.6-3.1,3.8-3.1c2.3,0,3.7,1.2,3.8,3.2H304.9z"/>
		<path class="footer-logo-fill-svg" d="M317.4,106.4h1.2v11.4h-1.2v-2.5c-1.1,1.9-2.5,2.7-4.3,2.7c-3.1,0-5.3-2.5-5.3-5.9c0-3.4,2.2-5.9,5.3-5.9
			c1.8,0,3.2,0.7,4.3,2.3V106.4z M310.1,108.8c-0.6,0.9-1,2.1-1,3.3c0,2.7,1.7,4.7,4,4.7c2.4,0,4.3-2.2,4.3-4.9
			c0-2.7-1.7-4.6-4.2-4.6C311.8,107.3,310.9,107.8,310.1,108.8z"/>
		<path class="footer-logo-fill-svg" d="M323,106.4v1.7c1.1-1.3,2.2-1.9,3.5-1.9c1,0,1.9,0.3,2.5,0.9c0.7,0.6,1,1.4,1,2.8v7.9h-1.2v-7.4
			c0-1.2-0.1-1.8-0.5-2.3c-0.4-0.5-1.1-0.8-1.9-0.8c-1,0-1.8,0.3-2.5,1c-0.7,0.7-0.9,1.3-0.9,2.4v7h-1.2v-11.4H323z"/>
		<path class="footer-logo-fill-svg" d="M339,109.4c0-1.3-0.9-2.1-2.6-2.1c-1.5,0-2.5,0.7-2.5,1.9c0,1.2,0.6,1.7,2.7,2.2c1.5,0.4,2.3,0.7,2.9,1.3
			c0.5,0.5,0.9,1.4,0.9,2.2c0,1.9-1.5,3.1-3.9,3.1c-2.5,0-3.8-1.1-4.1-3.4h1.3c0.1,1.4,1.2,2.3,2.9,2.3c1.5,0,2.6-0.8,2.6-2
			c0-1.1-0.8-1.8-2.9-2.3c-1.3-0.3-2.1-0.6-2.6-1.2c-0.6-0.5-1-1.3-1-2.2c0-1.9,1.6-3.1,3.8-3.1c2.3,0,3.7,1.2,3.8,3.2H339z"/>
	</g>
</g>
</svg>
